<?xml version="1.0" standalone="no"?>
<!DOCTYPE svg PUBLIC "-//W3C//DTD SVG 20010904//EN"
 "http://www.w3.org/TR/2001/REC-SVG-20010904/DTD/svg10.dtd">
<svg version="1.0" xmlns="http://www.w3.org/2000/svg"
 width="1024.000000pt" height="1024.000000pt" viewBox="0 0 1024.000000 1024.000000"
 preserveAspectRatio="xMidYMid meet">

<g transform="translate(0.000000,1024.000000) scale(0.100000,-0.100000)"
fill="#000000" stroke="none">
<path d="M2061 6079 c-49 -15 -106 -55 -270 -193 -245 -204 -633 -596 -700
-706 -41 -68 -18 -127 54 -136 33 -5 84 11 307 95 331 125 421 145 598 138
139 -6 192 -18 450 -102 91 -29 300 -97 465 -150 165 -53 431 -140 590 -192
702 -230 698 -229 768 -199 74 30 132 137 184 336 14 52 25 127 26 167 2 87
-14 115 -94 156 -62 31 -535 199 -1144 406 -110 38 -405 139 -655 226 -259 90
-474 160 -500 161 -25 2 -60 -1 -79 -7z"/>
<path d="M8040 6078 c-19 -5 -84 -28 -145 -50 -165 -60 -871 -309 -1385 -488
-604 -210 -668 -233 -718 -259 -100 -51 -107 -135 -35 -381 61 -205 121 -280
225 -280 18 0 384 117 813 259 1209 402 1203 400 1386 401 172 0 241 -18 746
-194 149 -52 181 -56 217 -23 66 59 31 119 -238 395 -231 236 -500 477 -644
575 -80 55 -143 68 -222 45z"/>
</g>
</svg>
