<?xml version="1.0" standalone="no"?>
<!DOCTYPE svg PUBLIC "-//W3C//DTD SVG 20010904//EN"
 "http://www.w3.org/TR/2001/REC-SVG-20010904/DTD/svg10.dtd">
<svg version="1.0" xmlns="http://www.w3.org/2000/svg"
 width="1024.000000pt" height="1024.000000pt" viewBox="0 0 1024.000000 1024.000000"
 preserveAspectRatio="xMidYMid meet">

<g transform="translate(0.000000,1024.000000) scale(0.100000,-0.100000)"
fill="#000000" stroke="none">
<path d="M4882 8239 c-1025 -78 -1955 -657 -2492 -1549 -152 -251 -283 -585
-350 -890 -59 -267 -83 -631 -61 -910 77 -963 594 -1845 1391 -2375 357 -237
740 -393 1175 -479 193 -38 269 -46 501 -53 527 -15 984 85 1469 322 856 419
1464 1196 1685 2155 58 253 74 390 74 670 0 319 -21 483 -99 785 -184 710
-613 1317 -1247 1766 -582 413 -1319 614 -2046 558z m668 -488 c457 -75 811
-226 1185 -506 389 -291 703 -690 870 -1105 226 -561 254 -1181 81 -1777 -253
-870 -966 -1572 -1859 -1829 -276 -79 -614 -116 -880 -95 -846 67 -1616 518
-2069 1211 -396 606 -526 1414 -347 2149 41 167 88 299 168 466 123 257 247
441 439 650 439 479 1041 781 1702 854 147 16 566 6 710 -18z"/>
<path d="M6105 6089 c-101 -14 -194 -64 -255 -136 -47 -57 -98 -169 -116 -253
-24 -112 -14 -291 20 -389 75 -214 237 -333 433 -318 190 14 344 158 399 372
23 93 24 266 1 355 -65 250 -260 399 -482 369z"/>
<path d="M3943 6070 c-111 -40 -197 -121 -248 -234 -43 -96 -58 -171 -57 -296
2 -269 118 -461 320 -529 196 -66 406 33 503 237 81 172 79 416 -5 595 -39 82
-125 170 -204 209 -59 29 -77 33 -162 35 -73 2 -107 -2 -147 -17z"/>
<path d="M3762 4475 c-68 -35 -106 -96 -106 -170 0 -46 7 -64 64 -159 90 -147
150 -225 250 -323 491 -482 1289 -591 1919 -262 163 85 259 155 387 283 66 67
136 146 156 176 86 133 136 222 142 255 20 107 -83 224 -199 225 -54 0 -137
-40 -167 -81 -14 -19 -39 -60 -57 -91 -73 -130 -257 -291 -426 -373 -501 -244
-1143 -158 -1506 200 -65 65 -87 93 -172 227 -48 75 -98 108 -174 115 -49 4
-66 0 -111 -22z"/>
</g>
</svg>
