<?xml version="1.0" standalone="no"?>
<!DOCTYPE svg PUBLIC "-//W3C//DTD SVG 20010904//EN"
 "http://www.w3.org/TR/2001/REC-SVG-20010904/DTD/svg10.dtd">
<svg version="1.0" xmlns="http://www.w3.org/2000/svg"
 width="1024.000000pt" height="1024.000000pt" viewBox="0 0 1024.000000 1024.000000"
 preserveAspectRatio="xMidYMid meet">

<g transform="translate(0.000000,1024.000000) scale(0.100000,-0.100000)"
fill="#000000" stroke="none">
<path d="M4920 8364 c-650 -47 -1171 -243 -1601 -603 -402 -336 -693 -832
-848 -1447 -65 -258 -103 -539 -131 -964 -14 -207 -43 -459 -76 -654 -34 -205
-46 -263 -114 -546 -89 -372 -94 -412 -95 -660 0 -207 1 -219 29 -320 56 -203
126 -353 263 -560 112 -169 157 -250 177 -319 35 -119 13 -210 -70 -301 -30
-32 -54 -63 -54 -69 0 -25 53 -33 152 -21 306 35 645 196 937 445 99 84 244
240 264 282 10 22 11 21 71 -30 279 -241 633 -395 1024 -447 107 -14 391 -14
512 0 380 45 766 210 1047 448 l71 61 18 -27 c68 -105 255 -289 419 -412 166
-124 415 -246 596 -291 94 -23 251 -39 288 -30 39 11 38 39 -1 71 -42 35 -84
111 -99 178 -23 108 17 206 193 474 232 355 318 618 304 926 -8 169 -34 322
-101 592 -121 487 -156 729 -195 1370 -36 573 -152 1049 -356 1459 -328 660
-918 1125 -1659 1310 -102 25 -300 58 -434 71 -115 11 -446 20 -531 14z m955
-1471 c13 -72 107 -309 190 -478 226 -463 516 -808 886 -1053 47 -32 107 -68
133 -82 l48 -25 -7 -110 c-31 -549 -126 -959 -309 -1332 -121 -247 -237 -417
-411 -601 -302 -320 -678 -526 -1071 -587 -144 -23 -404 -16 -546 14 -474 102
-888 403 -1205 877 -267 400 -416 874 -459 1460 l-6 91 78 8 c44 4 142 17 219
30 1026 171 1933 813 2377 1684 32 62 58 122 58 133 0 32 17 11 25 -29z"/>
</g>
</svg>
