<?xml version="1.0" standalone="no"?>
<!DOCTYPE svg PUBLIC "-//W3C//DTD SVG 20010904//EN"
 "http://www.w3.org/TR/2001/REC-SVG-20010904/DTD/svg10.dtd">
<svg version="1.0" xmlns="http://www.w3.org/2000/svg"
 width="1024.000000pt" height="1024.000000pt" viewBox="0 0 1024.000000 1024.000000"
 preserveAspectRatio="xMidYMid meet">

<g transform="translate(0.000000,1024.000000) scale(0.100000,-0.100000)"
fill="#000000" stroke="none">
<path d="M4460 5650 c-765 -42 -1289 -116 -1885 -266 -417 -105 -829 -271
-938 -378 -54 -52 -102 -145 -112 -214 -19 -143 85 -287 237 -328 103 -27 138
-19 388 86 508 213 1238 381 1960 449 622 59 1495 53 2115 -14 737 -81 1396
-238 1960 -469 140 -57 155 -61 230 -61 65 0 90 5 135 26 74 35 126 81 158
143 23 44 27 63 27 136 0 74 -4 92 -29 139 -58 111 -184 196 -441 294 -583
224 -1348 374 -2265 443 -240 18 -1293 27 -1540 14z"/>
</g>
</svg>
