<?xml version="1.0" standalone="no"?>
<!DOCTYPE svg PUBLIC "-//W3C//DTD SVG 20010904//EN"
 "http://www.w3.org/TR/2001/REC-SVG-20010904/DTD/svg10.dtd">
<svg version="1.0" xmlns="http://www.w3.org/2000/svg"
 width="1024.000000pt" height="1024.000000pt" viewBox="0 0 1024.000000 1024.000000"
 preserveAspectRatio="xMidYMid meet">

<g transform="translate(0.000000,1024.000000) scale(0.100000,-0.100000)"
fill="#000000" stroke="none">
<path d="M5937 8886 c-53 -20 -105 -62 -136 -112 -29 -45 -44 -94 -117 -398
-59 -247 -103 -390 -171 -561 -133 -334 -279 -598 -506 -915 -231 -323 -465
-587 -950 -1073 -558 -560 -723 -741 -938 -1032 -133 -180 -199 -284 -279
-438 -82 -157 -119 -250 -155 -381 -87 -321 -59 -645 81 -928 98 -200 223
-352 404 -497 225 -180 463 -301 860 -436 461 -157 567 -210 707 -353 53 -53
75 -87 134 -208 74 -152 92 -174 179 -213 55 -25 148 -27 213 -5 57 19 131 83
159 137 44 87 31 228 -37 389 -80 188 -254 379 -455 498 -185 109 -343 174
-710 294 -361 118 -567 226 -733 385 -227 217 -316 514 -242 807 56 221 234
510 519 843 153 179 287 321 586 626 547 556 665 682 904 969 326 391 603 822
771 1201 162 366 305 868 309 1085 1 85 -2 101 -27 155 -55 117 -127 167 -251
172 -52 2 -94 -2 -119 -11z"/>
<path d="M5331 3299 c-139 -23 -219 -65 -265 -137 -37 -59 -49 -111 -45 -199
3 -67 9 -87 34 -129 39 -61 97 -97 200 -123 44 -11 127 -32 185 -46 139 -35
223 -75 375 -180 159 -109 236 -139 342 -133 90 6 166 42 229 110 72 77 89
124 89 248 0 96 -2 110 -29 160 -121 232 -375 375 -756 426 -116 15 -276 16
-359 3z"/>
</g>
</svg>
